<svg width="137" height="51" viewBox="0 0 137 51" fill="none" xmlns="http://www.w3.org/2000/svg">
<g id="Group 1000004437">
<path id="Vector" d="M135.869 44.2519L134.001 46.3677L134.436 48.461C134.401 48.546 134.349 48.6185 134.279 48.6786C134.214 48.7386 134.151 48.7686 134.091 48.7686H132.14C132.07 48.7686 132.008 48.7336 131.953 48.6636C131.898 48.5885 131.86 48.521 131.84 48.461L131.608 47.3506L130.655 48.461C130.625 48.491 130.585 48.5235 130.535 48.5585C130.485 48.5935 130.432 48.6285 130.377 48.6636C130.327 48.6936 130.277 48.7186 130.227 48.7386C130.177 48.7586 130.134 48.7686 130.099 48.7686H127.969C127.889 48.7686 127.849 48.7186 127.849 48.6185C127.849 48.5485 127.859 48.496 127.879 48.461L129.687 46.3452L129.327 44.2519C129.362 44.1669 129.412 44.0943 129.477 44.0343C129.547 43.9743 129.612 43.9443 129.672 43.9443H131.668C131.738 43.9443 131.8 43.9793 131.855 44.0493C131.91 44.1193 131.948 44.1869 131.968 44.2519L132.11 45.3848L133.168 44.2519C133.198 44.2219 133.238 44.1894 133.288 44.1544C133.338 44.1193 133.388 44.0868 133.438 44.0568C133.493 44.0218 133.546 43.9943 133.596 43.9743C133.646 43.9543 133.688 43.9443 133.723 43.9443H135.779C135.859 43.9443 135.899 43.9943 135.899 44.0943C135.899 44.1644 135.889 44.2169 135.869 44.2519Z" fill="white"/>
<path id="Vector_2" d="M121.149 48.461L122.627 44.9947C122.677 44.8696 122.757 44.7446 122.867 44.6195C122.977 44.4945 123.1 44.3819 123.235 44.2819C123.375 44.1819 123.52 44.1018 123.67 44.0418C123.825 43.9768 123.973 43.9443 124.113 43.9443H128.914C128.999 43.9443 129.062 43.9668 129.102 44.0118C129.147 44.0518 129.157 44.1018 129.132 44.1619L128.779 44.9872C128.749 45.0572 128.697 45.1122 128.622 45.1522C128.547 45.1872 128.467 45.2048 128.382 45.2048H125.793C125.663 45.2048 125.576 45.2198 125.531 45.2498C125.486 45.2748 125.448 45.3223 125.418 45.3923C125.393 45.4523 125.393 45.4949 125.418 45.5199C125.443 45.5449 125.481 45.5574 125.531 45.5574H128.232C128.317 45.5574 128.379 45.5799 128.419 45.6249C128.459 45.6649 128.467 45.7149 128.442 45.775L127.947 46.9529C127.917 47.0229 127.859 47.078 127.774 47.118C127.689 47.153 127.611 47.1705 127.541 47.1705H124.84C124.79 47.1705 124.748 47.183 124.713 47.208C124.678 47.233 124.648 47.258 124.623 47.283L124.12 48.461C124.085 48.546 124.033 48.6185 123.963 48.6786C123.898 48.7386 123.835 48.7686 123.775 48.7686H121.239C121.169 48.7686 121.129 48.7361 121.119 48.6711C121.109 48.601 121.119 48.531 121.149 48.461Z" fill="white"/>
<path id="Vector_3" d="M125.023 37.6972C124.946 37.8843 124.83 38.0438 124.676 38.1759C124.533 38.3079 124.396 38.3739 124.264 38.3739H118.684C118.53 38.3739 118.442 38.3024 118.42 38.1594C118.398 38.0053 118.42 37.8512 118.486 37.6972L122.431 28.4372C122.497 28.2831 122.602 28.1346 122.745 27.9915C122.888 27.8375 123.037 27.7604 123.191 27.7604H134.844C135.152 27.7604 135.416 27.832 135.636 27.975C135.856 28.1071 136.021 28.2831 136.132 28.5032C136.253 28.7233 136.313 28.9709 136.313 29.246C136.324 29.5211 136.275 29.7962 136.165 30.0713L132.913 37.6972C132.847 37.8512 132.742 38.0053 132.599 38.1594C132.456 38.3024 132.308 38.3739 132.154 38.3739H126.574C126.442 38.3739 126.354 38.3079 126.31 38.1759C126.277 38.0438 126.299 37.8843 126.376 37.6972L129.397 30.583C129.485 30.3959 129.491 30.2309 129.414 30.0878C129.347 29.9338 129.221 29.8567 129.034 29.8567H128.704C128.55 29.8567 128.44 29.8952 128.374 29.9723C128.308 30.0383 128.231 30.1648 128.143 30.3519L125.023 37.6972Z" fill="white"/>
<path id="Vector_4" d="M109.614 37.6972C109.537 37.8843 109.421 38.0438 109.267 38.1759C109.124 38.3079 108.986 38.3739 108.854 38.3739H103.275C103.121 38.3739 103.033 38.3024 103.011 38.1594C102.989 38.0053 103.011 37.8512 103.077 37.6972L106.329 30.0713C106.439 29.7962 106.615 29.5211 106.857 29.246C107.099 28.9709 107.369 28.7233 107.666 28.5032C107.974 28.2831 108.293 28.1071 108.623 27.975C108.964 27.832 109.289 27.7604 109.597 27.7604H119.435C119.743 27.7604 120.007 27.832 120.227 27.975C120.447 28.1071 120.612 28.2831 120.722 28.5032C120.843 28.7233 120.904 28.9709 120.904 29.246C120.915 29.5211 120.865 29.7962 120.755 30.0713L120.095 31.6064C120.029 31.7604 119.925 31.9145 119.782 32.0686C119.638 32.2116 119.49 32.2831 119.336 32.2831H113.757C113.625 32.2831 113.537 32.2171 113.493 32.0851C113.449 31.953 113.471 31.7935 113.559 31.6064L114.021 30.5335C114.076 30.3464 114.065 30.1869 113.988 30.0548C113.922 29.9228 113.801 29.8567 113.625 29.8567C113.438 29.8567 113.245 29.9338 113.047 30.0878C112.86 30.2309 112.722 30.3959 112.634 30.583L109.614 37.6972ZM112.37 32.7948H117.289C117.597 32.7948 117.861 32.8664 118.081 33.0094C118.301 33.1415 118.467 33.3175 118.577 33.5376C118.698 33.7577 118.758 34.0053 118.758 34.2804C118.769 34.5555 118.72 34.8306 118.61 35.1057L117.504 37.6972C117.438 37.8512 117.333 38.0053 117.19 38.1594C117.047 38.3024 116.898 38.3739 116.744 38.3739H111.165C111.033 38.3739 110.945 38.3079 110.901 38.1759C110.868 38.0438 110.89 37.8843 110.967 37.6972L111.859 35.6174C111.947 35.4303 111.952 35.2653 111.875 35.1222C111.809 34.9682 111.682 34.8911 111.495 34.8911L112.37 32.7948Z" fill="white"/>
<path id="Vector_5" d="M102.087 37.6972C102.01 37.8843 101.895 38.0438 101.741 38.1759C101.598 38.3079 101.46 38.3739 101.328 38.3739H95.7489C95.5949 38.3739 95.5068 38.3024 95.4848 38.1594C95.4628 38.0053 95.4848 37.8512 95.5508 37.6972L99.4958 28.4372C99.5619 28.2831 99.6664 28.1346 99.8094 27.9915C99.9525 27.8375 100.101 27.7604 100.255 27.7604H105.834C105.966 27.7604 106.049 27.8265 106.082 27.9585C106.126 28.0906 106.109 28.2501 106.032 28.4372L102.087 37.6972Z" fill="white"/>
<path id="Vector_6" d="M90.9641 31.3093H94.9916C95.2997 31.3093 95.5638 31.3753 95.7839 31.5073C96.004 31.6394 96.1746 31.8155 96.2956 32.0355C96.4167 32.2446 96.4772 32.4867 96.4772 32.7618C96.4882 33.0369 96.4332 33.312 96.3121 33.5871L95.2557 36.0631C95.1347 36.3382 94.9531 36.6133 94.711 36.8884C94.4799 37.1635 94.2103 37.4111 93.9022 37.6312C93.6051 37.8512 93.286 38.0328 92.9448 38.1759C92.6147 38.3079 92.2956 38.3739 91.9875 38.3739H81.4235C81.2364 38.3739 81.0934 38.3299 80.9943 38.2419C80.9063 38.1428 80.8898 38.0273 80.9448 37.8953L81.7206 36.0796C81.8527 35.7605 82.1443 35.6009 82.5955 35.6009H88.2406C88.4717 35.6009 88.6477 35.5844 88.7688 35.5514C88.9008 35.5074 89.0109 35.3918 89.0989 35.2047C89.1759 35.0397 89.0934 34.9241 88.8513 34.8581H84.5267C84.2186 34.8581 83.9545 34.7921 83.7344 34.66C83.5143 34.517 83.3437 34.3354 83.2227 34.1153C83.1126 33.8952 83.0521 33.6477 83.0411 33.3726C83.0411 33.0974 83.1016 32.8223 83.2227 32.5472L84.2791 30.0713C84.3891 29.7962 84.5652 29.5211 84.8073 29.246C85.0494 28.9709 85.319 28.7233 85.6161 28.5032C85.9242 28.2831 86.2433 28.1071 86.5735 27.975C86.9146 27.832 87.2392 27.7604 87.5473 27.7604H98.1113C98.2984 27.7604 98.4359 27.81 98.524 27.909C98.623 27.997 98.645 28.1071 98.59 28.2391L97.8142 30.0548C97.7482 30.2089 97.6271 30.3299 97.4511 30.4179C97.286 30.495 97.1154 30.5335 96.9394 30.5335H91.2942C91.0631 30.5335 90.8761 30.561 90.733 30.616C90.601 30.66 90.4964 30.7756 90.4194 30.9626C90.3644 31.0727 90.3919 31.1607 90.5019 31.2267C90.623 31.2818 90.777 31.3093 90.9641 31.3093Z" fill="white"/>
<path id="Vector_7" d="M67.1967 36.0631L69.7552 30.0713C69.8652 29.7962 70.0413 29.5211 70.2834 29.246C70.5255 28.9709 70.7951 28.7233 71.0922 28.5032C71.4003 28.2831 71.7194 28.1071 72.0495 27.975C72.3907 27.832 72.7153 27.7604 73.0234 27.7604H83.5874C83.7745 27.7604 83.912 27.81 84 27.909C84.0991 27.997 84.1211 28.1071 84.0661 28.2391L83.2903 30.0548C83.1582 30.3739 82.8666 30.5335 82.4155 30.5335H76.7208C76.4567 30.5335 76.2696 30.5665 76.1596 30.6325C76.0496 30.6875 75.9615 30.7921 75.8955 30.9461C75.8405 31.0782 75.8405 31.1717 75.8955 31.2267C75.9505 31.2818 76.033 31.3093 76.1431 31.3093H82.0853C82.2724 31.3093 82.4099 31.3588 82.498 31.4578C82.586 31.5459 82.6025 31.6559 82.5475 31.788L81.4581 34.3794C81.3921 34.5335 81.2655 34.6545 81.0784 34.7426C80.8914 34.8196 80.7208 34.8581 80.5668 34.8581H74.6245C74.5145 34.8581 74.4154 34.8966 74.3274 34.9737C74.2504 35.0397 74.1843 35.1002 74.1293 35.1552C74.0413 35.3423 74.0358 35.4633 74.1128 35.5184C74.1899 35.5734 74.3439 35.6009 74.575 35.6009H80.2531C80.4072 35.6009 80.5392 35.6449 80.6493 35.7329C80.7703 35.81 80.7978 35.9255 80.7318 36.0796L79.956 37.8953C79.901 38.0273 79.7855 38.1428 79.6094 38.2419C79.4443 38.3299 79.2683 38.3739 79.0812 38.3739H68.5172C68.2091 38.3739 67.945 38.3079 67.7249 38.1759C67.5048 38.0328 67.3343 37.8512 67.2132 37.6312C67.1032 37.4111 67.0427 37.1635 67.0316 36.8884C67.0206 36.6133 67.0757 36.3382 67.1967 36.0631Z" fill="white"/>
<path id="Vector_8" d="M51.2909 38.3739C51.1368 38.3739 51.0488 38.3024 51.0268 38.1594C51.0048 38.0053 51.0268 37.8512 51.0928 37.6972L55.0378 28.4372C55.1038 28.2831 55.2084 28.1346 55.3514 27.9915C55.4945 27.8375 55.643 27.7604 55.7971 27.7604H67.4505C67.7586 27.7604 68.0227 27.832 68.2428 27.975C68.4629 28.1071 68.6279 28.2831 68.738 28.5032C68.859 28.7233 68.9196 28.9709 68.9196 29.246C68.9306 29.5211 68.881 29.7962 68.771 30.0713L66.2125 36.0631C66.0915 36.3382 65.9099 36.6133 65.6678 36.8884C65.4367 37.1635 65.1671 37.4111 64.859 37.6312C64.5619 37.8512 64.2428 38.0328 63.9017 38.1759C63.5715 38.3079 63.2524 38.3739 62.9443 38.3739H51.2909ZM60.749 30.3519L58.4381 35.766C58.3721 35.92 58.3501 36.0466 58.3721 36.1456C58.4051 36.2336 58.4711 36.2776 58.5702 36.2776H58.9168C59.2469 36.2116 59.478 36.1071 59.61 35.964C59.7531 35.81 59.8521 35.6724 59.9072 35.5514L62.0034 30.583C62.0915 30.3959 62.097 30.2309 62.02 30.0878C61.9539 29.9338 61.8274 29.8567 61.6403 29.8567H61.3102C61.1561 29.8567 61.0461 29.8952 60.9801 29.9723C60.914 30.0383 60.837 30.1648 60.749 30.3519Z" fill="white"/>
<path id="Vector_9" d="M115.569 21.9412C115.492 22.1283 115.376 22.2878 115.222 22.4199C115.079 22.5519 114.941 22.618 114.809 22.618H110.897C110.743 22.618 110.655 22.5464 110.633 22.4034C110.611 22.2493 110.633 22.0953 110.699 21.9412L111.739 19.4983C111.805 19.3442 111.91 19.1957 112.053 19.0526C112.207 18.8986 112.361 18.8215 112.515 18.8215H116.427C116.559 18.8215 116.642 18.8876 116.675 19.0196C116.719 19.1517 116.697 19.3112 116.609 19.4983L115.569 21.9412Z" fill="white"/>
<path id="Vector_10" d="M100.826 21.9413C100.749 22.1283 100.633 22.2879 100.479 22.4199C100.336 22.552 100.199 22.618 100.067 22.618H94.4876C94.3886 22.618 94.3171 22.585 94.2731 22.519C94.229 22.453 94.207 22.3759 94.207 22.2879C94.207 22.2549 94.2345 22.1393 94.2896 21.9413L98.2345 12.6813C98.3006 12.5272 98.4051 12.3787 98.5482 12.2356C98.6912 12.0815 98.8398 12.0045 98.9938 12.0045H104.573C104.749 12.0045 104.837 12.1146 104.837 12.3346C104.837 12.4887 104.815 12.6042 104.771 12.6813L100.826 21.9413ZM112.727 12.6813L108.914 17.3195L110.103 21.9413C110.025 22.1283 109.91 22.2879 109.756 22.4199C109.613 22.552 109.475 22.618 109.343 22.618H104.936C104.782 22.618 104.644 22.541 104.523 22.3869C104.402 22.2219 104.32 22.0733 104.276 21.9413L103.153 18.1118V18.0293C103.153 17.9082 103.164 17.7872 103.186 17.6662C103.219 17.5341 103.252 17.4241 103.285 17.336C103.329 17.226 103.39 17.0994 103.467 16.9564C103.555 16.8133 103.66 16.6813 103.781 16.5602L106.834 12.6813C106.9 12.6152 106.988 12.5437 107.098 12.4667C107.208 12.3897 107.318 12.3181 107.429 12.2521C107.55 12.1751 107.665 12.1146 107.775 12.0705C107.885 12.0265 107.979 12.0045 108.056 12.0045H112.529C112.705 12.0045 112.793 12.1146 112.793 12.3346C112.793 12.4887 112.771 12.6042 112.727 12.6813Z" fill="white"/>
<path id="Vector_11" d="M85.4164 21.9413C85.3394 22.1283 85.2238 22.2879 85.0698 22.4199C84.9267 22.552 84.7892 22.618 84.6571 22.618H79.078C78.924 22.618 78.8359 22.5465 78.8139 22.4034C78.7919 22.2494 78.8139 22.0953 78.8799 21.9413L82.8249 12.6813C82.891 12.5272 82.9955 12.3787 83.1385 12.2356C83.2816 12.0815 83.4302 12.0045 83.5842 12.0045H95.2376C95.5457 12.0045 95.8098 12.076 96.0299 12.2191C96.25 12.3511 96.4151 12.5272 96.5251 12.7473C96.6461 12.9674 96.7067 13.215 96.7067 13.4901C96.7177 13.7652 96.6681 14.0403 96.5581 14.3154L93.3064 21.9413C93.2404 22.0953 93.1358 22.2494 92.9928 22.4034C92.8497 22.5465 92.7012 22.618 92.5471 22.618H86.968C86.8359 22.618 86.7479 22.552 86.7039 22.4199C86.6709 22.2879 86.6929 22.1283 86.7699 21.9413L89.7906 14.8271C89.8786 14.64 89.8841 14.4749 89.8071 14.3319C89.741 14.1778 89.6145 14.1008 89.4274 14.1008H89.0973C88.9432 14.1008 88.8332 14.1393 88.7672 14.2164C88.7011 14.2824 88.6241 14.4089 88.5361 14.596L85.4164 21.9413Z" fill="white"/>
<path id="Vector_12" d="M81.8321 12.6813L81.1223 14.3319C81.0343 14.519 80.9188 14.6785 80.7757 14.8106C80.6326 14.9426 80.4951 15.0086 80.363 15.0086H74.7839C74.6299 15.0086 74.5418 14.9371 74.5198 14.7941C74.4978 14.64 74.5198 14.486 74.5859 14.3319L75.2956 12.6813C75.3617 12.5272 75.4662 12.3787 75.6093 12.2356C75.7523 12.0815 75.9009 12.0045 76.0549 12.0045H81.634C81.7661 12.0045 81.8486 12.0705 81.8816 12.2026C81.9256 12.3346 81.9091 12.4942 81.8321 12.6813ZM80.3135 16.2301L77.8871 21.9413C77.8101 22.1283 77.6945 22.2879 77.5405 22.4199C77.3974 22.552 77.2599 22.618 77.1278 22.618H71.5487C71.3947 22.618 71.3066 22.5465 71.2846 22.4034C71.2626 22.2494 71.2846 22.0953 71.3506 21.9413L73.7771 16.2301C73.8431 16.0761 73.9476 15.9275 74.0907 15.7844C74.2447 15.6304 74.3988 15.5534 74.5529 15.5534H80.132C80.264 15.5534 80.3465 15.6194 80.3795 15.7514C80.4236 15.8835 80.4016 16.043 80.3135 16.2301Z" fill="white"/>
<path id="Union" fill-rule="evenodd" clip-rule="evenodd" d="M16.9912 0.413407L8.18597 16.0025C8.15812 16.0518 8.13595 16.1022 8.11912 16.1531H0.832508C0.194232 16.1531 -0.205918 16.8336 0.110755 17.3806L9.13608 32.9697C9.28408 33.2253 9.55952 33.3831 9.85783 33.3831H21.2435C21.8817 33.3831 22.2819 32.7025 21.9652 32.1556L13.324 17.23H19.9981C20.2891 17.23 20.5578 17.0723 20.7022 16.8166L29.5074 1.22755C29.8163 0.680571 29.426 0 28.8032 0H17.6953C17.4043 0 17.1356 0.157766 16.9912 0.413407ZM23.673 33.7966L14.6477 49.3857C14.331 49.9326 14.7311 50.6132 15.3694 50.6132H26.755C27.0533 50.6132 27.3288 50.4554 27.4768 50.1998L36.5021 34.6107C36.5307 34.5614 36.5534 34.511 36.5706 34.4601H44.9349C45.5731 34.4601 45.9733 33.7796 45.6566 33.2326L36.6313 17.6435C36.4833 17.3879 36.2078 17.2301 35.9095 17.2301H24.5239C23.8856 17.2301 23.4855 17.9107 23.8022 18.4577L32.4433 33.3832H24.3947C24.0964 33.3832 23.821 33.5409 23.673 33.7966Z" fill="white"/>
</g>
</svg>
