<svg width="99" height="84" viewBox="0 0 99 84" fill="none" xmlns="http://www.w3.org/2000/svg">
<path id="&#226;&#128;&#156;" d="M0.534783 79.5719L0.531006 79.5933L0.529076 79.6148C0.424507 80.7868 0.595467 81.7763 1.15887 82.4779C1.73414 83.1943 2.62718 83.5 3.70975 83.5L25.469 83.5C26.4368 83.5 27.2716 83.2805 27.9277 82.7943C28.5852 82.3071 29.0103 81.5914 29.231 80.6994L50.9876 5.08641L50.9958 5.05802L51.0006 5.02887C51.2101 3.7481 51.1151 2.6225 50.6579 1.69084L50.6224 1.61843L50.5659 1.56088C49.8433 0.824604 48.7982 0.499996 47.5264 0.499996L17.7192 0.499993C16.7257 0.499993 15.8752 0.784073 15.2184 1.39244C14.5694 1.99355 14.1612 2.86356 13.9497 3.94073L13.9497 3.94071L13.9481 3.94971L0.534783 79.5719ZM47.9283 79.5719L47.9245 79.5933L47.9226 79.6148C47.818 80.7868 47.989 81.7763 48.5524 82.4779C49.1277 83.1943 50.0207 83.5 51.1033 83.5L72.8626 83.5C73.8304 83.5 74.6651 83.2805 75.3213 82.7943C75.9788 82.3071 76.4038 81.5914 76.6245 80.6994L98.3812 5.08641L98.3893 5.05802L98.3941 5.02887C98.6036 3.74811 98.5086 2.62251 98.0514 1.69084L98.0159 1.61844L97.9594 1.56088C97.2368 0.824608 96.1917 0.5 94.9199 0.5L65.1127 0.499997C64.1192 0.499997 63.2687 0.784077 62.6119 1.39244C61.9629 1.99355 61.5547 2.86357 61.3432 3.94073L61.3432 3.94072L61.3416 3.94971L47.9283 79.5719Z" stroke="white" stroke-opacity="0.5"/>
</svg>
