<svg width="219" height="60" viewBox="0 0 219 60" fill="none" xmlns="http://www.w3.org/2000/svg">
<g id="Group 1000004444">
<path id="Vector" d="M217.735 40.7284L215.561 43.1899L216.067 45.6251C216.027 45.724 215.966 45.8084 215.884 45.8782C215.809 45.9481 215.736 45.983 215.666 45.983H213.397C213.315 45.983 213.242 45.9423 213.178 45.8608C213.114 45.7735 213.071 45.695 213.047 45.6251L212.777 44.3333L211.668 45.6251C211.633 45.66 211.587 45.6979 211.529 45.7386C211.47 45.7793 211.409 45.8201 211.345 45.8608C211.287 45.8957 211.229 45.9248 211.171 45.9481C211.113 45.9714 211.063 45.983 211.022 45.983H208.543C208.45 45.983 208.404 45.9248 208.404 45.8084C208.404 45.727 208.415 45.6659 208.439 45.6251L210.542 43.1637L210.123 40.7284C210.164 40.6295 210.222 40.5451 210.298 40.4753C210.379 40.4055 210.455 40.3705 210.525 40.3705H212.847C212.928 40.3705 213.001 40.4113 213.065 40.4927C213.129 40.5742 213.172 40.6528 213.196 40.7284L213.362 42.0464L214.592 40.7284C214.627 40.6935 214.674 40.6557 214.732 40.6149C214.79 40.5742 214.848 40.5364 214.907 40.5015C214.971 40.4607 215.032 40.4287 215.09 40.4055C215.148 40.3822 215.198 40.3705 215.238 40.3705H217.63C217.723 40.3705 217.77 40.4287 217.77 40.5451C217.77 40.6266 217.758 40.6877 217.735 40.7284Z" fill="black"/>
<path id="Vector_2" d="M200.61 45.6251L202.329 41.5925C202.387 41.4471 202.48 41.3016 202.608 41.1561C202.736 41.0106 202.879 40.8797 203.036 40.7633C203.199 40.6469 203.368 40.5538 203.542 40.484C203.723 40.4084 203.894 40.3705 204.057 40.3705H209.644C209.743 40.3705 209.815 40.3967 209.862 40.4491C209.914 40.4957 209.926 40.5538 209.897 40.6237L209.487 41.5838C209.452 41.6653 209.39 41.7293 209.303 41.7758C209.216 41.8166 209.123 41.8369 209.024 41.8369H206.013C205.861 41.8369 205.759 41.8544 205.707 41.8893C205.655 41.9184 205.611 41.9737 205.576 42.0552C205.547 42.125 205.547 42.1744 205.576 42.2035C205.605 42.2326 205.649 42.2472 205.707 42.2472H208.849C208.948 42.2472 209.021 42.2734 209.068 42.3257C209.114 42.3723 209.123 42.4305 209.094 42.5003L208.518 43.8707C208.483 43.9522 208.416 44.0162 208.317 44.0627C208.218 44.1034 208.128 44.1238 208.046 44.1238H204.904C204.846 44.1238 204.796 44.1384 204.756 44.1675C204.715 44.1966 204.68 44.2256 204.651 44.2547L204.066 45.6251C204.025 45.724 203.964 45.8084 203.883 45.8782C203.807 45.9481 203.734 45.983 203.665 45.983H200.714C200.633 45.983 200.586 45.9452 200.575 45.8695C200.563 45.7881 200.575 45.7066 200.61 45.6251Z" fill="black"/>
<path id="Vector_3" d="M205.293 35.5943C205.203 35.812 205.069 35.9976 204.89 36.1512C204.723 36.3048 204.563 36.3817 204.409 36.3817H197.919C197.74 36.3817 197.637 36.2984 197.612 36.132C197.586 35.9528 197.612 35.7736 197.688 35.5943L202.278 24.8216C202.355 24.6424 202.476 24.4695 202.643 24.3031C202.809 24.1239 202.982 24.0343 203.161 24.0343H216.718C217.077 24.0343 217.384 24.1175 217.64 24.2839C217.896 24.4375 218.088 24.6424 218.216 24.8984C218.357 25.1544 218.427 25.4425 218.427 25.7625C218.44 26.0826 218.383 26.4026 218.255 26.7227L214.472 35.5943C214.395 35.7736 214.273 35.9528 214.107 36.132C213.94 36.2984 213.768 36.3817 213.588 36.3817H207.098C206.944 36.3817 206.842 36.3048 206.791 36.1512C206.752 35.9976 206.778 35.812 206.867 35.5943L210.382 27.3179C210.484 27.1003 210.49 26.9083 210.401 26.7419C210.324 26.5626 210.177 26.473 209.959 26.473H209.575C209.396 26.473 209.268 26.5178 209.191 26.6074C209.114 26.6843 209.025 26.8315 208.922 27.0491L205.293 35.5943Z" fill="black"/>
<path id="Vector_4" d="M187.366 35.5943C187.276 35.812 187.141 35.9976 186.962 36.1512C186.796 36.3048 186.636 36.3817 186.482 36.3817H179.992C179.812 36.3817 179.71 36.2984 179.684 36.132C179.659 35.9528 179.684 35.7736 179.761 35.5943L183.544 26.7227C183.672 26.4026 183.877 26.0826 184.159 25.7625C184.44 25.4425 184.754 25.1544 185.1 24.8984C185.458 24.6424 185.829 24.4375 186.213 24.2839C186.61 24.1175 186.988 24.0343 187.346 24.0343H198.791C199.15 24.0343 199.457 24.1175 199.713 24.2839C199.969 24.4375 200.161 24.6424 200.289 24.8984C200.43 25.1544 200.5 25.4425 200.5 25.7625C200.513 26.0826 200.455 26.4026 200.327 26.7227L199.559 28.5085C199.482 28.6877 199.361 28.867 199.194 29.0462C199.028 29.2126 198.855 29.2958 198.676 29.2958H192.185C192.032 29.2958 191.929 29.219 191.878 29.0654C191.827 28.9118 191.853 28.7262 191.955 28.5085L192.493 27.2603C192.557 27.0427 192.544 26.8571 192.454 26.7035C192.377 26.5498 192.237 26.473 192.032 26.473C191.814 26.473 191.59 26.5626 191.36 26.7419C191.142 26.9083 190.982 27.1003 190.88 27.3179L187.366 35.5943ZM190.572 29.8911H196.295C196.653 29.8911 196.961 29.9743 197.217 30.1408C197.473 30.2944 197.665 30.4992 197.793 30.7552C197.933 31.0113 198.004 31.2993 198.004 31.6194C198.017 31.9394 197.959 32.2595 197.831 32.5795L196.544 35.5943C196.468 35.7736 196.346 35.9528 196.18 36.132C196.013 36.2984 195.84 36.3817 195.661 36.3817H189.171C189.017 36.3817 188.915 36.3048 188.863 36.1512C188.825 35.9976 188.851 35.812 188.94 35.5943L189.977 33.1748C190.08 32.9572 190.086 32.7651 189.996 32.5987C189.919 32.4195 189.772 32.3299 189.555 32.3299L190.572 29.8911Z" fill="black"/>
<path id="Vector_5" d="M178.608 35.5943C178.518 35.812 178.384 35.9976 178.204 36.1512C178.038 36.3048 177.878 36.3817 177.724 36.3817H171.234C171.055 36.3817 170.952 36.2984 170.927 36.132C170.901 35.9528 170.927 35.7736 171.003 35.5943L175.593 24.8216C175.67 24.6424 175.791 24.4695 175.958 24.3031C176.124 24.1239 176.297 24.0343 176.476 24.0343H182.967C183.12 24.0343 183.216 24.1111 183.255 24.2647C183.306 24.4183 183.287 24.604 183.197 24.8216L178.608 35.5943Z" fill="black"/>
<path id="Vector_6" d="M165.668 28.1629H170.353C170.712 28.1629 171.019 28.2397 171.275 28.3933C171.531 28.5469 171.729 28.7518 171.87 29.0078C172.011 29.251 172.081 29.5327 172.081 29.8527C172.094 30.1728 172.03 30.4928 171.889 30.8129L170.66 33.6933C170.52 34.0133 170.308 34.3334 170.027 34.6534C169.758 34.9735 169.444 35.2615 169.086 35.5175C168.74 35.7736 168.369 35.9848 167.972 36.1512C167.588 36.3048 167.217 36.3817 166.858 36.3817H154.568C154.351 36.3817 154.184 36.3304 154.069 36.228C153.967 36.1128 153.948 35.9784 154.012 35.8248L154.914 33.7125C155.068 33.3412 155.407 33.1556 155.932 33.1556H162.499C162.768 33.1556 162.973 33.1364 163.114 33.098C163.267 33.0468 163.395 32.9124 163.498 32.6947C163.587 32.5027 163.491 32.3683 163.21 32.2915H158.179C157.82 32.2915 157.513 32.2147 157.257 32.061C157.001 31.8946 156.802 31.6834 156.662 31.4273C156.533 31.1713 156.463 30.8833 156.45 30.5632C156.45 30.2432 156.521 29.9231 156.662 29.6031L157.891 26.7227C158.019 26.4026 158.223 26.0826 158.505 25.7625C158.787 25.4425 159.1 25.1544 159.446 24.8984C159.804 24.6424 160.176 24.4375 160.56 24.2839C160.957 24.1175 161.334 24.0343 161.693 24.0343H173.982C174.2 24.0343 174.36 24.0919 174.462 24.2071C174.578 24.3095 174.603 24.4375 174.539 24.5912L173.637 26.7035C173.56 26.8827 173.419 27.0235 173.214 27.1259C173.022 27.2155 172.824 27.2603 172.619 27.2603H166.052C165.783 27.2603 165.565 27.2923 165.399 27.3564C165.245 27.4076 165.124 27.542 165.034 27.7596C164.97 27.8876 165.002 27.99 165.13 28.0669C165.271 28.1309 165.45 28.1629 165.668 28.1629Z" fill="black"/>
<path id="Vector_7" d="M138.017 33.6933L140.994 26.7227C141.122 26.4026 141.327 26.0826 141.608 25.7625C141.89 25.4425 142.204 25.1544 142.549 24.8984C142.908 24.6424 143.279 24.4375 143.663 24.2839C144.06 24.1175 144.437 24.0343 144.796 24.0343H157.086C157.303 24.0343 157.463 24.0919 157.566 24.2071C157.681 24.3095 157.707 24.4375 157.643 24.5912L156.74 26.7035C156.586 27.0747 156.247 27.2603 155.722 27.2603H149.097C148.79 27.2603 148.572 27.2987 148.444 27.3756C148.316 27.4396 148.214 27.5612 148.137 27.7404C148.073 27.894 148.073 28.0028 148.137 28.0669C148.201 28.1309 148.297 28.1629 148.425 28.1629H155.338C155.556 28.1629 155.716 28.2205 155.818 28.3357C155.921 28.4381 155.94 28.5661 155.876 28.7197L154.609 31.7346C154.532 31.9138 154.385 32.0546 154.167 32.157C153.949 32.2467 153.751 32.2915 153.572 32.2915H146.659C146.531 32.2915 146.415 32.3363 146.313 32.4259C146.223 32.5027 146.147 32.5731 146.083 32.6371C145.98 32.8547 145.974 32.9956 146.063 33.0596C146.153 33.1236 146.332 33.1556 146.601 33.1556H153.207C153.386 33.1556 153.54 33.2068 153.668 33.3092C153.808 33.3988 153.84 33.5332 153.764 33.7125L152.861 35.8248C152.797 35.9784 152.663 36.1128 152.458 36.228C152.266 36.3304 152.061 36.3817 151.843 36.3817H139.554C139.195 36.3817 138.888 36.3048 138.632 36.1512C138.376 35.9848 138.177 35.7736 138.037 35.5175C137.909 35.2615 137.838 34.9735 137.825 34.6534C137.813 34.3334 137.877 34.0133 138.017 33.6933Z" fill="black"/>
<path id="Vector_8" d="M119.514 36.3817C119.335 36.3817 119.232 36.2984 119.207 36.132C119.181 35.9528 119.207 35.7736 119.284 35.5943L123.873 24.8216C123.95 24.6424 124.072 24.4695 124.238 24.3031C124.404 24.1239 124.577 24.0343 124.756 24.0343H138.314C138.672 24.0343 138.979 24.1175 139.235 24.2839C139.491 24.4375 139.683 24.6424 139.811 24.8984C139.952 25.1544 140.023 25.4425 140.023 25.7625C140.035 26.0826 139.978 26.4026 139.85 26.7227L136.873 33.6933C136.733 34.0133 136.521 34.3334 136.24 34.6534C135.971 34.9735 135.657 35.2615 135.299 35.5175C134.953 35.7736 134.582 35.9848 134.185 36.1512C133.801 36.3048 133.43 36.3817 133.071 36.3817H119.514ZM130.517 27.0491L127.829 33.3476C127.752 33.5268 127.726 33.6741 127.752 33.7893C127.791 33.8917 127.867 33.9429 127.983 33.9429H128.386C128.77 33.8661 129.039 33.7445 129.192 33.5781C129.359 33.3988 129.474 33.2388 129.538 33.098L131.977 27.3179C132.079 27.1003 132.086 26.9083 131.996 26.7419C131.919 26.5626 131.772 26.473 131.554 26.473H131.17C130.991 26.473 130.863 26.5178 130.786 26.6074C130.709 26.6843 130.62 26.8315 130.517 27.0491Z" fill="black"/>
<path id="Vector_9" d="M118.122 35.5943C118.033 35.8119 117.898 35.9975 117.719 36.1512C117.553 36.3048 117.393 36.3816 117.239 36.3816H112.688C112.509 36.3816 112.406 36.2984 112.381 36.132C112.355 35.9527 112.381 35.7735 112.458 35.5943L113.667 32.7523C113.744 32.5731 113.866 32.4002 114.032 32.2338C114.211 32.0546 114.391 31.965 114.57 31.965H119.121C119.274 31.965 119.371 32.0418 119.409 32.1954C119.46 32.349 119.435 32.5346 119.332 32.7523L118.122 35.5943Z" fill="black"/>
<path id="Vector_10" d="M100.971 35.5943C100.881 35.812 100.747 35.9976 100.568 36.1512C100.401 36.3048 100.241 36.3817 100.087 36.3817H93.597C93.4817 36.3817 93.3985 36.3433 93.3473 36.2664C93.2961 36.1896 93.2705 36.1 93.2705 35.9976C93.2705 35.9592 93.3025 35.8248 93.3665 35.5943L97.956 24.8216C98.0328 24.6424 98.1544 24.4695 98.3208 24.3031C98.4873 24.1239 98.6601 24.0343 98.8393 24.0343H105.33C105.535 24.0343 105.637 24.1623 105.637 24.4183C105.637 24.5976 105.611 24.732 105.56 24.8216L100.971 35.5943ZM114.816 24.8216L110.38 30.2176L111.763 35.5943C111.673 35.812 111.539 35.9976 111.36 36.1512C111.193 36.3048 111.033 36.3817 110.879 36.3817H105.752C105.573 36.3817 105.413 36.292 105.272 36.1128C105.131 35.9208 105.035 35.748 104.984 35.5943L103.678 31.1393V31.0433C103.678 30.9025 103.691 30.7616 103.717 30.6208C103.755 30.4672 103.794 30.3392 103.832 30.2368C103.883 30.1087 103.954 29.9615 104.043 29.7951C104.146 29.6287 104.267 29.4751 104.408 29.3342L107.961 24.8216C108.037 24.7448 108.14 24.6616 108.268 24.572C108.396 24.4823 108.524 24.3991 108.652 24.3223C108.793 24.2327 108.927 24.1623 109.055 24.1111C109.183 24.0599 109.292 24.0343 109.382 24.0343H114.586C114.79 24.0343 114.893 24.1623 114.893 24.4183C114.893 24.5976 114.867 24.732 114.816 24.8216Z" fill="black"/>
<path id="Vector_11" d="M83.0442 35.5943C82.9546 35.812 82.8202 35.9976 82.641 36.1512C82.4745 36.3048 82.3145 36.3817 82.1609 36.3817H75.6704C75.4911 36.3817 75.3887 36.2984 75.3631 36.132C75.3375 35.9528 75.3631 35.7736 75.4399 35.5943L80.0294 24.8216C80.1062 24.6424 80.2278 24.4695 80.3942 24.3031C80.5607 24.1239 80.7335 24.0343 80.9127 24.0343H94.4699C94.8283 24.0343 95.1356 24.1175 95.3916 24.2839C95.6476 24.4375 95.8397 24.6424 95.9677 24.8984C96.1085 25.1544 96.1789 25.4425 96.1789 25.7625C96.1917 26.0826 96.1341 26.4026 96.0061 26.7227L92.2232 35.5943C92.1463 35.7736 92.0247 35.9528 91.8583 36.132C91.6919 36.2984 91.5191 36.3817 91.3398 36.3817H84.8493C84.6957 36.3817 84.5932 36.3048 84.542 36.1512C84.5036 35.9976 84.5292 35.812 84.6189 35.5943L88.133 27.3179C88.2354 27.1003 88.2418 26.9083 88.1522 26.7419C88.0754 26.5626 87.9281 26.473 87.7105 26.473H87.3264C87.1472 26.473 87.0192 26.5178 86.9424 26.6074C86.8656 26.6843 86.776 26.8315 86.6736 27.0491L83.0442 35.5943Z" fill="black"/>
<path id="Vector_12" d="M78.8759 24.8216L78.0502 26.7419C77.9477 26.9595 77.8133 27.1451 77.6469 27.2987C77.4805 27.4524 77.3205 27.5292 77.1668 27.5292H70.6763C70.4971 27.5292 70.3947 27.446 70.369 27.2795C70.3434 27.1003 70.369 26.9211 70.4459 26.7419L71.2716 24.8216C71.3484 24.6424 71.47 24.4695 71.6364 24.3031C71.8029 24.1239 71.9757 24.0343 72.1549 24.0343H78.6454C78.7991 24.0343 78.8951 24.1111 78.9335 24.2647C78.9847 24.4183 78.9655 24.604 78.8759 24.8216ZM77.1092 28.9502L74.2864 35.5943C74.1968 35.812 74.0624 35.9976 73.8832 36.1512C73.7167 36.3048 73.5567 36.3817 73.4031 36.3817H66.9125C66.7333 36.3817 66.6309 36.2984 66.6053 36.132C66.5797 35.9528 66.6053 35.7736 66.6821 35.5943L69.5049 28.9502C69.5817 28.771 69.7034 28.5981 69.8698 28.4317C70.049 28.2525 70.2282 28.1629 70.4075 28.1629H76.898C77.0516 28.1629 77.1476 28.2397 77.186 28.3933C77.2372 28.5469 77.2116 28.7326 77.1092 28.9502Z" fill="black"/>
<path id="Vector 4" d="M9.83762 19.2114L20.0813 1.07561C20.2493 0.778206 20.5619 0.594666 20.9005 0.594666L33.823 0.594666C34.5475 0.594666 35.0017 1.38642 34.6422 2.02275L24.3986 20.1585C24.2306 20.4559 23.918 20.6395 23.5794 20.6395H10.6568C9.93237 20.6395 9.4782 19.8477 9.83762 19.2114Z" fill="black"/>
<path id="Vector 7" d="M17.3574 58.0483L27.8571 39.9125C28.0293 39.6151 28.3497 39.4315 28.6968 39.4315H41.9424C42.685 39.4315 43.1505 40.2233 42.7821 40.8596L32.2823 58.9954C32.1102 59.2928 31.7897 59.4763 31.4427 59.4763H18.197C17.4545 59.4763 16.989 58.6846 17.3574 58.0483Z" fill="black"/>
<path id="Vector 5" d="M25.8692 38.0034L15.3694 19.8676C15.1973 19.5702 14.8768 19.3867 14.5298 19.3867H1.28413C0.541584 19.3867 0.0760632 20.1784 0.444469 20.8148L10.9442 38.9506C11.1164 39.248 11.4368 39.4315 11.7839 39.4315H25.0295C25.7721 39.4315 26.2376 38.6398 25.8692 38.0034Z" fill="black"/>
<path id="Vector 6" d="M53.4302 39.2562L42.9305 21.1204C42.7583 20.823 42.4379 20.6395 42.0908 20.6395H28.8452C28.1026 20.6395 27.6371 21.4313 28.0055 22.0676L38.5053 40.2034C38.6774 40.5008 38.9979 40.6843 39.3449 40.6843H52.5906C53.3331 40.6843 53.7986 39.8926 53.4302 39.2562Z" fill="black"/>
</g>
</svg>
