<svg width="35" height="35" viewBox="0 0 35 35" fill="none" xmlns="http://www.w3.org/2000/svg">
<g clip-path="url(#clip0_217_1379)">
<circle cx="17.5" cy="17.5" r="17.5" fill="white"/>
<path d="M10.2565 12.7598L14.5262 5.20046C14.5962 5.0765 14.7265 5 14.8677 5H20.254C20.556 5 20.7453 5.33002 20.5955 5.59525L16.3257 13.1545C16.2557 13.2785 16.1254 13.355 15.9843 13.355H10.5979C10.296 13.355 10.1067 13.025 10.2565 12.7598Z" fill="#292929"/>
<path d="M13.3906 28.9473L17.7671 21.388C17.8389 21.264 17.9724 21.1875 18.1171 21.1875H23.6381C23.9476 21.1875 24.1416 21.5175 23.9881 21.7828L19.6116 29.342C19.5398 29.466 19.4063 29.5425 19.2616 29.5425H13.7406C13.4311 29.5425 13.2371 29.2125 13.3906 28.9473Z" fill="#292929"/>
<path d="M16.9375 20.5937L12.561 13.0344C12.4893 12.9105 12.3557 12.834 12.2111 12.834H6.69005C6.38054 12.834 6.18651 13.164 6.34006 13.4292L10.7165 20.9885C10.7883 21.1125 10.9219 21.189 11.0665 21.189H16.5875C16.897 21.189 17.0911 20.859 16.9375 20.5937Z" fill="#292929"/>
<path d="M28.4287 21.1152L24.0522 13.5559C23.9805 13.432 23.8469 13.3555 23.7023 13.3555H18.1813C17.8718 13.3555 17.6777 13.6855 17.8313 13.9507L22.2077 21.51C22.2795 21.634 22.4131 21.7105 22.5577 21.7105H28.0787C28.3882 21.7105 28.5823 21.3805 28.4287 21.1152Z" fill="#292929"/>
</g>
<defs>
<clipPath id="clip0_217_1379">
<rect width="35" height="35" fill="white"/>
</clipPath>
</defs>
</svg>
