<svg width="219" height="60" viewBox="0 0 219 60" fill="none" xmlns="http://www.w3.org/2000/svg">
<path d="M218.231 40.4553L216.058 42.9167L216.564 45.352C216.523 45.4509 216.462 45.5353 216.381 45.6051C216.305 45.6749 216.232 45.7099 216.163 45.7099H213.893C213.812 45.7099 213.739 45.6691 213.675 45.5877C213.611 45.5004 213.567 45.4218 213.544 45.352L213.273 44.0602L212.165 45.352C212.13 45.3869 212.083 45.4247 212.025 45.4655C211.967 45.5062 211.906 45.5469 211.842 45.5877C211.784 45.6226 211.726 45.6517 211.667 45.6749C211.609 45.6982 211.56 45.7099 211.519 45.7099H209.04C208.947 45.7099 208.9 45.6517 208.9 45.5353C208.9 45.4538 208.912 45.3927 208.935 45.352L211.039 42.8905L210.62 40.4553C210.661 40.3564 210.719 40.272 210.794 40.2022C210.876 40.1323 210.952 40.0974 211.021 40.0974H213.343C213.425 40.0974 213.497 40.1381 213.561 40.2196C213.625 40.3011 213.669 40.3796 213.692 40.4553L213.858 41.7733L215.089 40.4553C215.124 40.4204 215.17 40.3825 215.229 40.3418C215.287 40.3011 215.345 40.2633 215.403 40.2283C215.467 40.1876 215.528 40.1556 215.586 40.1323C215.645 40.1091 215.694 40.0974 215.735 40.0974H218.126C218.22 40.0974 218.266 40.1556 218.266 40.272C218.266 40.3534 218.254 40.4145 218.231 40.4553Z" fill="white"/>
<path d="M201.107 45.352L202.826 41.3194C202.884 41.1739 202.977 41.0285 203.105 40.883C203.234 40.7375 203.376 40.6066 203.533 40.4902C203.696 40.3738 203.865 40.2807 204.039 40.2109C204.22 40.1352 204.391 40.0974 204.554 40.0974H210.141C210.24 40.0974 210.312 40.1236 210.359 40.176C210.411 40.2225 210.423 40.2807 210.394 40.3505L209.984 41.3107C209.949 41.3921 209.888 41.4562 209.8 41.5027C209.713 41.5434 209.62 41.5638 209.521 41.5638H206.51C206.358 41.5638 206.256 41.5813 206.204 41.6162C206.152 41.6453 206.108 41.7006 206.073 41.782C206.044 41.8518 206.044 41.9013 206.073 41.9304C206.102 41.9595 206.146 41.974 206.204 41.974H209.346C209.445 41.974 209.518 42.0002 209.565 42.0526C209.611 42.0992 209.62 42.1573 209.591 42.2272L209.015 43.5976C208.98 43.679 208.913 43.743 208.814 43.7896C208.715 43.8303 208.625 43.8507 208.543 43.8507H205.401C205.343 43.8507 205.293 43.8652 205.253 43.8943C205.212 43.9234 205.177 43.9525 205.148 43.9816L204.563 45.352C204.522 45.4509 204.461 45.5353 204.38 45.6051C204.304 45.6749 204.231 45.7099 204.162 45.7099H201.211C201.13 45.7099 201.083 45.672 201.072 45.5964C201.06 45.5149 201.072 45.4335 201.107 45.352Z" fill="white"/>
<path d="M205.79 35.3212C205.701 35.5388 205.566 35.7244 205.387 35.8781C205.221 36.0317 205.061 36.1085 204.907 36.1085H198.416C198.237 36.1085 198.135 36.0253 198.109 35.8589C198.084 35.6796 198.109 35.5004 198.186 35.3212L202.775 24.5484C202.852 24.3692 202.974 24.1964 203.14 24.0299C203.307 23.8507 203.48 23.7611 203.659 23.7611H217.216C217.574 23.7611 217.882 23.8443 218.138 24.0107C218.394 24.1644 218.586 24.3692 218.714 24.6252C218.855 24.8813 218.925 25.1693 218.925 25.4894C218.938 25.8094 218.88 26.1295 218.752 26.4495L214.969 35.3212C214.892 35.5004 214.771 35.6796 214.604 35.8589C214.438 36.0253 214.265 36.1085 214.086 36.1085H207.595C207.442 36.1085 207.339 36.0317 207.288 35.8781C207.25 35.7244 207.275 35.5388 207.365 35.3212L210.879 27.0448C210.981 26.8272 210.988 26.6351 210.898 26.4687C210.821 26.2895 210.674 26.1999 210.457 26.1999H210.073C209.893 26.1999 209.765 26.2447 209.688 26.3343C209.612 26.4111 209.522 26.5583 209.42 26.7759L205.79 35.3212Z" fill="white"/>
<path d="M187.863 35.3212C187.773 35.5388 187.639 35.7244 187.459 35.8781C187.293 36.0317 187.133 36.1085 186.979 36.1085H180.489C180.309 36.1085 180.207 36.0253 180.181 35.8589C180.156 35.6796 180.181 35.5004 180.258 35.3212L184.041 26.4495C184.169 26.1295 184.374 25.8094 184.656 25.4894C184.937 25.1693 185.251 24.8813 185.597 24.6252C185.955 24.3692 186.326 24.1644 186.71 24.0107C187.107 23.8443 187.485 23.7611 187.843 23.7611H199.288C199.647 23.7611 199.954 23.8443 200.21 24.0107C200.466 24.1644 200.658 24.3692 200.786 24.6252C200.927 24.8813 200.997 25.1693 200.997 25.4894C201.01 25.8094 200.952 26.1295 200.824 26.4495L200.056 28.2354C199.98 28.4146 199.858 28.5938 199.691 28.773C199.525 28.9395 199.352 29.0227 199.173 29.0227H192.682C192.529 29.0227 192.426 28.9459 192.375 28.7922C192.324 28.6386 192.35 28.453 192.452 28.2354L192.99 26.9872C193.054 26.7695 193.041 26.5839 192.951 26.4303C192.875 26.2767 192.734 26.1999 192.529 26.1999C192.311 26.1999 192.087 26.2895 191.857 26.4687C191.639 26.6351 191.479 26.8272 191.377 27.0448L187.863 35.3212ZM191.069 29.618H196.792C197.15 29.618 197.458 29.7012 197.714 29.8676C197.97 30.0212 198.162 30.226 198.29 30.4821C198.431 30.7381 198.501 31.0262 198.501 31.3462C198.514 31.6662 198.456 31.9863 198.328 32.3063L197.042 35.3212C196.965 35.5004 196.843 35.6796 196.677 35.8589C196.51 36.0253 196.337 36.1085 196.158 36.1085H189.668C189.514 36.1085 189.412 36.0317 189.36 35.8781C189.322 35.7244 189.348 35.5388 189.437 35.3212L190.474 32.9016C190.577 32.684 190.583 32.492 190.493 32.3255C190.417 32.1463 190.269 32.0567 190.052 32.0567L191.069 29.618Z" fill="white"/>
<path d="M179.105 35.3212C179.015 35.5388 178.881 35.7244 178.702 35.8781C178.535 36.0317 178.375 36.1085 178.221 36.1085H171.731C171.552 36.1085 171.449 36.0253 171.424 35.8589C171.398 35.6796 171.424 35.5004 171.5 35.3212L176.09 24.5484C176.167 24.3692 176.288 24.1964 176.455 24.0299C176.621 23.8507 176.794 23.7611 176.973 23.7611H183.464C183.617 23.7611 183.713 23.8379 183.752 23.9915C183.803 24.1452 183.784 24.3308 183.694 24.5484L179.105 35.3212Z" fill="white"/>
<path d="M166.165 27.8897H170.85C171.209 27.8897 171.516 27.9665 171.772 28.1201C172.028 28.2738 172.226 28.4786 172.367 28.7346C172.508 28.9779 172.578 29.2595 172.578 29.5795C172.591 29.8996 172.527 30.2196 172.386 30.5397L171.157 33.4201C171.017 33.7401 170.805 34.0602 170.524 34.3802C170.255 34.7003 169.941 34.9883 169.583 35.2444C169.237 35.5004 168.866 35.7116 168.469 35.8781C168.085 36.0317 167.714 36.1085 167.355 36.1085H155.065C154.848 36.1085 154.681 36.0573 154.566 35.9549C154.464 35.8397 154.445 35.7052 154.509 35.5516L155.411 33.4393C155.565 33.0681 155.904 32.8824 156.429 32.8824H162.996C163.265 32.8824 163.47 32.8632 163.611 32.8248C163.764 32.7736 163.892 32.6392 163.995 32.4216C164.084 32.2295 163.988 32.0951 163.707 32.0183H158.676C158.317 32.0183 158.01 31.9415 157.754 31.7879C157.498 31.6214 157.299 31.4102 157.159 31.1542C157.031 30.8981 156.96 30.6101 156.947 30.2901C156.947 29.97 157.018 29.65 157.159 29.3299L158.388 26.4495C158.516 26.1295 158.72 25.8094 159.002 25.4894C159.284 25.1693 159.597 24.8813 159.943 24.6252C160.301 24.3692 160.673 24.1644 161.057 24.0107C161.454 23.8443 161.831 23.7611 162.19 23.7611H174.479C174.697 23.7611 174.857 23.8187 174.96 23.9339C175.075 24.0363 175.1 24.1644 175.036 24.318L174.134 26.4303C174.057 26.6095 173.916 26.7503 173.711 26.8528C173.519 26.9424 173.321 26.9872 173.116 26.9872H166.549C166.28 26.9872 166.062 27.0192 165.896 27.0832C165.742 27.1344 165.621 27.2688 165.531 27.4864C165.467 27.6145 165.499 27.7169 165.627 27.7937C165.768 27.8577 165.947 27.8897 166.165 27.8897Z" fill="white"/>
<path d="M138.514 33.4201L141.49 26.4495C141.618 26.1295 141.823 25.8094 142.105 25.4894C142.386 25.1693 142.7 24.8813 143.046 24.6252C143.404 24.3692 143.776 24.1644 144.16 24.0107C144.556 23.8443 144.934 23.7611 145.293 23.7611H157.582C157.8 23.7611 157.96 23.8187 158.062 23.9339C158.178 24.0363 158.203 24.1644 158.139 24.318L157.237 26.4303C157.083 26.8015 156.744 26.9872 156.219 26.9872H149.594C149.287 26.9872 149.069 27.0256 148.941 27.1024C148.813 27.1664 148.711 27.288 148.634 27.4672C148.57 27.6209 148.57 27.7297 148.634 27.7937C148.698 27.8577 148.794 27.8897 148.922 27.8897H155.835C156.052 27.8897 156.212 27.9473 156.315 28.0625C156.417 28.1649 156.437 28.293 156.373 28.4466L155.105 31.4614C155.028 31.6406 154.881 31.7815 154.663 31.8839C154.446 31.9735 154.247 32.0183 154.068 32.0183H147.155C147.027 32.0183 146.912 32.0631 146.81 32.1527C146.72 32.2295 146.643 32.2999 146.579 32.364C146.477 32.5816 146.47 32.7224 146.56 32.7864C146.65 32.8504 146.829 32.8824 147.098 32.8824H153.703C153.883 32.8824 154.036 32.9336 154.164 33.036C154.305 33.1257 154.337 33.2601 154.26 33.4393L153.358 35.5516C153.294 35.7052 153.159 35.8397 152.954 35.9549C152.762 36.0573 152.558 36.1085 152.34 36.1085H140.05C139.692 36.1085 139.384 36.0317 139.128 35.8781C138.872 35.7116 138.674 35.5004 138.533 35.2444C138.405 34.9883 138.335 34.7003 138.322 34.3802C138.309 34.0602 138.373 33.7401 138.514 33.4201Z" fill="white"/>
<path d="M120.011 36.1085C119.832 36.1085 119.73 36.0253 119.704 35.8589C119.678 35.6796 119.704 35.5004 119.781 35.3212L124.37 24.5484C124.447 24.3692 124.569 24.1964 124.735 24.0299C124.901 23.8507 125.074 23.7611 125.254 23.7611H138.811C139.169 23.7611 139.476 23.8443 139.732 24.0107C139.988 24.1644 140.18 24.3692 140.309 24.6252C140.449 24.8813 140.52 25.1693 140.52 25.4894C140.533 25.8094 140.475 26.1295 140.347 26.4495L137.37 33.4201C137.23 33.7401 137.018 34.0602 136.737 34.3802C136.468 34.7003 136.154 34.9883 135.796 35.2444C135.45 35.5004 135.079 35.7116 134.682 35.8781C134.298 36.0317 133.927 36.1085 133.568 36.1085H120.011ZM131.014 26.7759L128.326 33.0745C128.249 33.2537 128.224 33.4009 128.249 33.5161C128.288 33.6185 128.364 33.6697 128.48 33.6697H128.883C129.267 33.5929 129.536 33.4713 129.689 33.3049C129.856 33.1257 129.971 32.9656 130.035 32.8248L132.474 27.0448C132.576 26.8272 132.583 26.6351 132.493 26.4687C132.416 26.2895 132.269 26.1999 132.051 26.1999H131.667C131.488 26.1999 131.36 26.2447 131.283 26.3343C131.206 26.4111 131.117 26.5583 131.014 26.7759Z" fill="white"/>
<path d="M118.619 35.3211C118.53 35.5387 118.395 35.7244 118.216 35.878C118.05 36.0316 117.89 36.1084 117.736 36.1084H113.185C113.006 36.1084 112.903 36.0252 112.878 35.8588C112.852 35.6795 112.878 35.5003 112.955 35.3211L114.164 32.4791C114.241 32.2999 114.363 32.127 114.529 31.9606C114.708 31.7814 114.888 31.6918 115.067 31.6918H119.618C119.772 31.6918 119.868 31.7686 119.906 31.9222C119.957 32.0758 119.932 32.2615 119.829 32.4791L118.619 35.3211Z" fill="white"/>
<path d="M101.468 35.3212C101.378 35.5388 101.244 35.7244 101.065 35.8781C100.898 36.0317 100.738 36.1085 100.585 36.1085H94.094C93.9788 36.1085 93.8956 36.0701 93.8444 35.9933C93.7932 35.9165 93.7676 35.8269 93.7676 35.7244C93.7676 35.686 93.7996 35.5516 93.8636 35.3212L98.4531 24.5484C98.5299 24.3692 98.6515 24.1964 98.8179 24.0299C98.9843 23.8507 99.1572 23.7611 99.3364 23.7611H105.827C106.032 23.7611 106.134 23.8891 106.134 24.1452C106.134 24.3244 106.109 24.4588 106.057 24.5484L101.468 35.3212ZM115.313 24.5484L110.877 29.9444L112.26 35.3212C112.17 35.5388 112.036 35.7244 111.857 35.8781C111.69 36.0317 111.53 36.1085 111.377 36.1085H106.249C106.07 36.1085 105.91 36.0189 105.769 35.8397C105.628 35.6476 105.532 35.4748 105.481 35.3212L104.175 30.8661V30.7701C104.175 30.6293 104.188 30.4885 104.214 30.3477C104.252 30.194 104.291 30.066 104.329 29.9636C104.38 29.8356 104.451 29.6884 104.54 29.5219C104.643 29.3555 104.764 29.2019 104.905 29.0611L108.458 24.5484C108.535 24.4716 108.637 24.3884 108.765 24.2988C108.893 24.2092 109.021 24.126 109.149 24.0491C109.29 23.9595 109.424 23.8891 109.552 23.8379C109.68 23.7867 109.789 23.7611 109.879 23.7611H115.083C115.287 23.7611 115.39 23.8891 115.39 24.1452C115.39 24.3244 115.364 24.4588 115.313 24.5484Z" fill="white"/>
<path d="M83.5413 35.3212C83.4517 35.5388 83.3173 35.7244 83.138 35.8781C82.9716 36.0317 82.8116 36.1085 82.658 36.1085H76.1674C75.9882 36.1085 75.8858 36.0253 75.8602 35.8589C75.8346 35.6796 75.8602 35.5004 75.937 35.3212L80.5265 24.5484C80.6033 24.3692 80.7249 24.1964 80.8913 24.0299C81.0577 23.8507 81.2306 23.7611 81.4098 23.7611H94.9669C95.3254 23.7611 95.6326 23.8443 95.8887 24.0107C96.1447 24.1644 96.3367 24.3692 96.4648 24.6252C96.6056 24.8813 96.676 25.1693 96.676 25.4894C96.6888 25.8094 96.6312 26.1295 96.5032 26.4495L92.7202 35.3212C92.6434 35.5004 92.5218 35.6796 92.3554 35.8589C92.1889 36.0253 92.0161 36.1085 91.8369 36.1085H85.3464C85.1927 36.1085 85.0903 36.0317 85.0391 35.8781C85.0007 35.7244 85.0263 35.5388 85.1159 35.3212L88.63 27.0448C88.7324 26.8272 88.7388 26.6351 88.6492 26.4687C88.5724 26.2895 88.4252 26.1999 88.2076 26.1999H87.8235C87.6443 26.1999 87.5163 26.2447 87.4395 26.3343C87.3626 26.4111 87.273 26.5583 87.1706 26.7759L83.5413 35.3212Z" fill="white"/>
<path d="M79.3729 24.5484L78.5472 26.4687C78.4448 26.6863 78.3104 26.872 78.144 27.0256C77.9775 27.1792 77.8175 27.256 77.6639 27.256H71.1734C70.9941 27.256 70.8917 27.1728 70.8661 27.0064C70.8405 26.8272 70.8661 26.6479 70.9429 26.4687L71.7686 24.5484C71.8455 24.3692 71.9671 24.1964 72.1335 24.0299C72.2999 23.8507 72.4728 23.7611 72.652 23.7611H79.1425C79.2961 23.7611 79.3922 23.8379 79.4306 23.9915C79.4818 24.1452 79.4626 24.3308 79.3729 24.5484ZM77.6063 28.677L74.7835 35.3212C74.6939 35.5388 74.5595 35.7244 74.3802 35.8781C74.2138 36.0317 74.0538 36.1085 73.9002 36.1085H67.4096C67.2304 36.1085 67.128 36.0253 67.1024 35.8589C67.0768 35.6796 67.1024 35.5004 67.1792 35.3212L70.002 28.677C70.0788 28.4978 70.2004 28.325 70.3668 28.1585C70.5461 27.9793 70.7253 27.8897 70.9045 27.8897H77.3951C77.5487 27.8897 77.6447 27.9665 77.6831 28.1201C77.7343 28.2738 77.7087 28.4594 77.6063 28.677Z" fill="white"/>
<path d="M10.3347 18.9382L20.5784 0.802415C20.7463 0.505012 21.059 0.321472 21.3975 0.321472H34.3201C35.0446 0.321472 35.4987 1.11323 35.1393 1.74956L24.8956 19.8854C24.7277 20.1828 24.415 20.3663 24.0765 20.3663H11.1539C10.4294 20.3663 9.97527 19.5745 10.3347 18.9382Z" fill="white"/>
<path d="M17.8544 57.7751L28.3542 39.6393C28.5264 39.3419 28.8468 39.1583 29.1939 39.1583H42.4395C43.182 39.1583 43.6476 39.9501 43.2792 40.5864L32.7794 58.7222C32.6072 59.0196 32.2868 59.2031 31.9397 59.2031H18.6941C17.9515 59.2031 17.486 58.4114 17.8544 57.7751Z" fill="white"/>
<path d="M26.3663 37.7303L15.8665 19.5945C15.6943 19.2971 15.3739 19.1135 15.0269 19.1135H1.7812C1.03865 19.1135 0.573133 19.9053 0.94154 20.5416L11.4413 38.6774C11.6135 38.9748 11.9339 39.1583 12.281 39.1583H25.5266C26.2692 39.1583 26.7347 38.3666 26.3663 37.7303Z" fill="white"/>
<path d="M53.9278 38.9831L43.428 20.8473C43.2559 20.5499 42.9354 20.3663 42.5884 20.3663H29.3427C28.6002 20.3663 28.1347 21.1581 28.5031 21.7944L39.0028 39.9302C39.175 40.2276 39.4954 40.4112 39.8425 40.4112H53.0881C53.8307 40.4112 54.2962 39.6194 53.9278 38.9831Z" fill="white"/>
</svg>
