<svg width="137" height="51" viewBox="0 0 137 51" fill="none" xmlns="http://www.w3.org/2000/svg">
<g id="Logo">
<path id="Vector" d="M135.869 44.252L134.001 46.3677L134.436 48.461C134.401 48.5461 134.349 48.6186 134.279 48.6786C134.214 48.7386 134.151 48.7687 134.091 48.7687H132.14C132.07 48.7687 132.008 48.7336 131.953 48.6636C131.898 48.5886 131.86 48.5211 131.84 48.461L131.608 47.3506L130.655 48.461C130.625 48.4911 130.585 48.5236 130.535 48.5586C130.485 48.5936 130.432 48.6286 130.377 48.6636C130.327 48.6936 130.277 48.7186 130.227 48.7386C130.177 48.7587 130.134 48.7687 130.099 48.7687H127.969C127.889 48.7687 127.849 48.7186 127.849 48.6186C127.849 48.5486 127.859 48.4961 127.879 48.461L129.687 46.3452L129.327 44.252C129.362 44.1669 129.412 44.0944 129.477 44.0344C129.547 43.9743 129.612 43.9443 129.672 43.9443H131.668C131.738 43.9443 131.8 43.9793 131.855 44.0494C131.91 44.1194 131.948 44.1869 131.968 44.252L132.11 45.3849L133.168 44.252C133.198 44.2219 133.238 44.1894 133.288 44.1544C133.338 44.1194 133.388 44.0869 133.438 44.0569C133.493 44.0219 133.546 43.9944 133.596 43.9743C133.646 43.9543 133.688 43.9443 133.723 43.9443H135.779C135.859 43.9443 135.899 43.9944 135.899 44.0944C135.899 44.1644 135.889 44.2169 135.869 44.252Z" fill="white"/>
<path id="Vector_2" d="M121.149 48.461L122.627 44.9947C122.677 44.8697 122.757 44.7446 122.867 44.6196C122.977 44.4945 123.1 44.382 123.235 44.282C123.375 44.1819 123.52 44.1019 123.67 44.0419C123.825 43.9768 123.973 43.9443 124.113 43.9443H128.914C128.999 43.9443 129.062 43.9668 129.102 44.0119C129.147 44.0519 129.157 44.1019 129.132 44.1619L128.779 44.9872C128.749 45.0573 128.697 45.1123 128.622 45.1523C128.547 45.1873 128.467 45.2048 128.382 45.2048H125.793C125.663 45.2048 125.576 45.2198 125.531 45.2498C125.486 45.2748 125.448 45.3224 125.418 45.3924C125.393 45.4524 125.393 45.4949 125.418 45.5199C125.443 45.5449 125.481 45.5574 125.531 45.5574H128.232C128.317 45.5574 128.379 45.58 128.419 45.625C128.459 45.665 128.467 45.715 128.442 45.775L127.947 46.953C127.917 47.023 127.859 47.078 127.774 47.118C127.689 47.153 127.611 47.1706 127.541 47.1706H124.84C124.79 47.1706 124.748 47.1831 124.713 47.2081C124.678 47.2331 124.648 47.2581 124.623 47.2831L124.12 48.461C124.085 48.5461 124.033 48.6186 123.963 48.6786C123.898 48.7386 123.835 48.7687 123.775 48.7687H121.239C121.169 48.7687 121.129 48.7361 121.119 48.6711C121.109 48.6011 121.119 48.5311 121.149 48.461Z" fill="white"/>
<path id="Vector_3" d="M125.023 37.6975C124.946 37.8846 124.83 38.0441 124.676 38.1762C124.533 38.3082 124.396 38.3742 124.264 38.3742H118.684C118.53 38.3742 118.442 38.3027 118.42 38.1597C118.398 38.0056 118.42 37.8515 118.486 37.6975L122.431 28.4375C122.497 28.2834 122.602 28.1349 122.745 27.9918C122.888 27.8378 123.037 27.7607 123.191 27.7607H134.844C135.152 27.7607 135.416 27.8323 135.636 27.9753C135.856 28.1074 136.022 28.2834 136.132 28.5035C136.253 28.7236 136.313 28.9712 136.313 29.2463C136.324 29.5214 136.275 29.7965 136.165 30.0716L132.913 37.6975C132.847 37.8515 132.742 38.0056 132.599 38.1597C132.456 38.3027 132.308 38.3742 132.154 38.3742H126.574C126.442 38.3742 126.354 38.3082 126.31 38.1762C126.277 38.0441 126.299 37.8846 126.376 37.6975L129.397 30.5833C129.485 30.3962 129.491 30.2312 129.414 30.0881C129.347 29.9341 129.221 29.857 129.034 29.857H128.704C128.55 29.857 128.44 29.8955 128.374 29.9726C128.308 30.0386 128.231 30.1651 128.143 30.3522L125.023 37.6975Z" fill="white"/>
<path id="Vector_4" d="M109.614 37.6975C109.537 37.8846 109.421 38.0441 109.267 38.1762C109.124 38.3082 108.986 38.3742 108.854 38.3742H103.275C103.121 38.3742 103.033 38.3027 103.011 38.1597C102.989 38.0056 103.011 37.8515 103.077 37.6975L106.329 30.0716C106.439 29.7965 106.615 29.5214 106.857 29.2463C107.099 28.9712 107.369 28.7236 107.666 28.5035C107.974 28.2834 108.293 28.1074 108.623 27.9753C108.964 27.8323 109.289 27.7607 109.597 27.7607H119.435C119.743 27.7607 120.007 27.8323 120.227 27.9753C120.447 28.1074 120.612 28.2834 120.722 28.5035C120.843 28.7236 120.904 28.9712 120.904 29.2463C120.915 29.5214 120.865 29.7965 120.755 30.0716L120.095 31.6067C120.029 31.7607 119.925 31.9148 119.782 32.0689C119.638 32.2119 119.49 32.2834 119.336 32.2834H113.757C113.625 32.2834 113.537 32.2174 113.493 32.0854C113.449 31.9533 113.471 31.7938 113.559 31.6067L114.021 30.5338C114.076 30.3467 114.065 30.1872 113.988 30.0551C113.922 29.9231 113.801 29.857 113.625 29.857C113.438 29.857 113.245 29.9341 113.047 30.0881C112.86 30.2312 112.722 30.3962 112.634 30.5833L109.614 37.6975ZM112.37 32.7951H117.289C117.597 32.7951 117.861 32.8667 118.081 33.0097C118.301 33.1418 118.467 33.3178 118.577 33.5379C118.698 33.758 118.758 34.0056 118.758 34.2807C118.769 34.5558 118.72 34.8309 118.61 35.106L117.504 37.6975C117.438 37.8515 117.333 38.0056 117.19 38.1597C117.047 38.3027 116.898 38.3742 116.744 38.3742H111.165C111.033 38.3742 110.945 38.3082 110.901 38.1762C110.868 38.0441 110.89 37.8846 110.967 37.6975L111.859 35.6177C111.947 35.4306 111.952 35.2656 111.875 35.1225C111.809 34.9685 111.682 34.8914 111.495 34.8914L112.37 32.7951Z" fill="white"/>
<path id="Vector_5" d="M102.087 37.6975C102.01 37.8846 101.895 38.0441 101.741 38.1762C101.598 38.3082 101.46 38.3742 101.328 38.3742H95.7489C95.5949 38.3742 95.5068 38.3027 95.4848 38.1597C95.4628 38.0056 95.4848 37.8515 95.5508 37.6975L99.4958 28.4375C99.5619 28.2834 99.6664 28.1349 99.8094 27.9918C99.9525 27.8378 100.101 27.7607 100.255 27.7607H105.834C105.966 27.7607 106.049 27.8268 106.082 27.9588C106.126 28.0909 106.109 28.2504 106.032 28.4375L102.087 37.6975Z" fill="white"/>
<path id="Vector_6" d="M90.9641 31.3096H94.9916C95.2997 31.3096 95.5638 31.3756 95.7839 31.5077C96.004 31.6397 96.1746 31.8158 96.2956 32.0359C96.4167 32.2449 96.4772 32.487 96.4772 32.7621C96.4882 33.0372 96.4332 33.3123 96.3121 33.5874L95.2557 36.0634C95.1347 36.3385 94.9531 36.6136 94.711 36.8887C94.4799 37.1638 94.2103 37.4114 93.9022 37.6315C93.6051 37.8515 93.286 38.0331 92.9449 38.1762C92.6147 38.3082 92.2956 38.3742 91.9875 38.3742H81.4235C81.2364 38.3742 81.0934 38.3302 80.9943 38.2422C80.9063 38.1432 80.8898 38.0276 80.9448 37.8956L81.7206 36.0799C81.8527 35.7608 82.1443 35.6012 82.5955 35.6012H88.2406C88.4717 35.6012 88.6477 35.5847 88.7688 35.5517C88.9008 35.5077 89.0109 35.3921 89.0989 35.205C89.1759 35.04 89.0934 34.9244 88.8513 34.8584H84.5267C84.2186 34.8584 83.9545 34.7924 83.7344 34.6603C83.5143 34.5173 83.3437 34.3357 83.2227 34.1156C83.1126 33.8956 83.0521 33.648 83.0411 33.3729C83.0411 33.0978 83.1016 32.8226 83.2227 32.5475L84.2791 30.0716C84.3891 29.7965 84.5652 29.5214 84.8073 29.2463C85.0494 28.9712 85.319 28.7236 85.6161 28.5035C85.9242 28.2834 86.2433 28.1074 86.5735 27.9753C86.9146 27.8323 87.2392 27.7607 87.5473 27.7607H98.1113C98.2984 27.7607 98.4359 27.8103 98.524 27.9093C98.623 27.9973 98.645 28.1074 98.59 28.2394L97.8142 30.0551C97.7482 30.2092 97.6271 30.3302 97.4511 30.4182C97.286 30.4953 97.1154 30.5338 96.9394 30.5338H91.2942C91.0631 30.5338 90.8761 30.5613 90.733 30.6163C90.601 30.6603 90.4964 30.7759 90.4194 30.9629C90.3644 31.073 90.3919 31.161 90.5019 31.227C90.623 31.2821 90.777 31.3096 90.9641 31.3096Z" fill="white"/>
<path id="Vector_7" d="M67.1967 36.0634L69.7552 30.0716C69.8652 29.7965 70.0413 29.5214 70.2834 29.2463C70.5255 28.9712 70.7951 28.7236 71.0922 28.5035C71.4003 28.2834 71.7194 28.1074 72.0495 27.9753C72.3907 27.8323 72.7153 27.7607 73.0234 27.7607H83.5874C83.7745 27.7607 83.912 27.8103 84 27.9093C84.0991 27.9973 84.1211 28.1074 84.0661 28.2394L83.2903 30.0551C83.1582 30.3742 82.8666 30.5338 82.4155 30.5338H76.7208C76.4567 30.5338 76.2696 30.5668 76.1596 30.6328C76.0496 30.6878 75.9615 30.7924 75.8955 30.9464C75.8405 31.0785 75.8405 31.172 75.8955 31.227C75.9505 31.2821 76.033 31.3096 76.1431 31.3096H82.0853C82.2724 31.3096 82.4099 31.3591 82.498 31.4581C82.586 31.5462 82.6025 31.6562 82.5475 31.7883L81.4581 34.3797C81.3921 34.5338 81.2655 34.6548 81.0784 34.7429C80.8914 34.8199 80.7208 34.8584 80.5668 34.8584H74.6245C74.5145 34.8584 74.4154 34.8969 74.3274 34.974C74.2504 35.04 74.1843 35.1005 74.1293 35.1555C74.0413 35.3426 74.0358 35.4636 74.1128 35.5187C74.1899 35.5737 74.3439 35.6012 74.575 35.6012H80.2531C80.4072 35.6012 80.5392 35.6452 80.6493 35.7332C80.7703 35.8103 80.7978 35.9258 80.7318 36.0799L79.956 37.8956C79.901 38.0276 79.7855 38.1432 79.6094 38.2422C79.4443 38.3302 79.2683 38.3742 79.0812 38.3742H68.5172C68.2091 38.3742 67.945 38.3082 67.7249 38.1762C67.5048 38.0331 67.3343 37.8515 67.2132 37.6315C67.1032 37.4114 67.0427 37.1638 67.0316 36.8887C67.0206 36.6136 67.0757 36.3385 67.1967 36.0634Z" fill="white"/>
<path id="Vector_8" d="M51.2909 38.3742C51.1368 38.3742 51.0488 38.3027 51.0268 38.1597C51.0048 38.0056 51.0268 37.8515 51.0928 37.6975L55.0378 28.4375C55.1038 28.2834 55.2084 28.1349 55.3514 27.9918C55.4945 27.8378 55.643 27.7607 55.7971 27.7607H67.4505C67.7586 27.7607 68.0227 27.8323 68.2428 27.9753C68.4629 28.1074 68.6279 28.2834 68.738 28.5035C68.859 28.7236 68.9196 28.9712 68.9196 29.2463C68.9306 29.5214 68.881 29.7965 68.771 30.0716L66.2125 36.0634C66.0915 36.3385 65.9099 36.6136 65.6678 36.8887C65.4367 37.1638 65.1671 37.4114 64.859 37.6315C64.5619 37.8515 64.2428 38.0331 63.9017 38.1762C63.5715 38.3082 63.2524 38.3742 62.9443 38.3742H51.2909ZM60.749 30.3522L58.4381 35.7663C58.3721 35.9203 58.3501 36.0469 58.3721 36.1459C58.4051 36.2339 58.4711 36.278 58.5702 36.278H58.9168C59.2469 36.2119 59.478 36.1074 59.61 35.9643C59.7531 35.8103 59.8521 35.6727 59.9072 35.5517L62.0034 30.5833C62.0915 30.3962 62.097 30.2312 62.02 30.0881C61.9539 29.9341 61.8274 29.857 61.6403 29.857H61.3102C61.1561 29.857 61.0461 29.8955 60.9801 29.9726C60.914 30.0386 60.837 30.1651 60.749 30.3522Z" fill="white"/>
<path id="Vector_9" d="M115.569 21.941C115.492 22.128 115.376 22.2876 115.222 22.4196C115.079 22.5517 114.941 22.6177 114.809 22.6177H110.897C110.743 22.6177 110.655 22.5462 110.633 22.4031C110.611 22.2491 110.633 22.095 110.699 21.941L111.739 19.498C111.805 19.344 111.91 19.1954 112.053 19.0524C112.207 18.8983 112.361 18.8213 112.515 18.8213H116.427C116.559 18.8213 116.642 18.8873 116.675 19.0194C116.719 19.1514 116.697 19.311 116.609 19.498L115.569 21.941Z" fill="white"/>
<path id="Vector_10" d="M100.826 21.9416C100.749 22.1287 100.633 22.2883 100.479 22.4203C100.336 22.5524 100.199 22.6184 100.067 22.6184H94.4876C94.3886 22.6184 94.3171 22.5854 94.2731 22.5193C94.229 22.4533 94.207 22.3763 94.207 22.2883C94.207 22.2552 94.2345 22.1397 94.2896 21.9416L98.2345 12.6816C98.3006 12.5276 98.4051 12.379 98.5482 12.236C98.6912 12.0819 98.8398 12.0049 98.9938 12.0049H104.573C104.749 12.0049 104.837 12.1149 104.837 12.335C104.837 12.4891 104.815 12.6046 104.771 12.6816L100.826 21.9416ZM112.727 12.6816L108.914 17.3199L110.103 21.9416C110.025 22.1287 109.91 22.2883 109.756 22.4203C109.613 22.5524 109.475 22.6184 109.343 22.6184H104.936C104.782 22.6184 104.644 22.5414 104.523 22.3873C104.402 22.2222 104.32 22.0737 104.276 21.9416L103.153 18.1122V18.0297C103.153 17.9086 103.164 17.7876 103.186 17.6665C103.219 17.5345 103.252 17.4244 103.285 17.3364C103.329 17.2264 103.39 17.0998 103.467 16.9567C103.555 16.8137 103.66 16.6816 103.781 16.5606L106.834 12.6816C106.9 12.6156 106.988 12.5441 107.098 12.4671C107.208 12.39 107.318 12.3185 107.429 12.2525C107.55 12.1754 107.665 12.1149 107.775 12.0709C107.885 12.0269 107.979 12.0049 108.056 12.0049H112.529C112.705 12.0049 112.793 12.1149 112.793 12.335C112.793 12.4891 112.771 12.6046 112.727 12.6816Z" fill="white"/>
<path id="Vector_11" d="M85.4164 21.9416C85.3394 22.1287 85.2238 22.2883 85.0698 22.4203C84.9267 22.5524 84.7892 22.6184 84.6571 22.6184H79.078C78.924 22.6184 78.8359 22.5469 78.8139 22.4038C78.7919 22.2497 78.8139 22.0957 78.8799 21.9416L82.8249 12.6816C82.891 12.5276 82.9955 12.379 83.1385 12.236C83.2816 12.0819 83.4302 12.0049 83.5842 12.0049H95.2376C95.5457 12.0049 95.8098 12.0764 96.0299 12.2195C96.25 12.3515 96.4151 12.5276 96.5251 12.7477C96.6461 12.9677 96.7067 13.2153 96.7067 13.4904C96.7177 13.7655 96.6681 14.0407 96.5581 14.3158L93.3064 21.9416C93.2404 22.0957 93.1358 22.2497 92.9928 22.4038C92.8497 22.5469 92.7012 22.6184 92.5471 22.6184H86.968C86.8359 22.6184 86.7479 22.5524 86.7039 22.4203C86.6709 22.2883 86.6929 22.1287 86.7699 21.9416L89.7906 14.8274C89.8786 14.6404 89.8841 14.4753 89.8071 14.3323C89.741 14.1782 89.6145 14.1012 89.4274 14.1012H89.0973C88.9432 14.1012 88.8332 14.1397 88.7672 14.2167C88.7011 14.2827 88.6241 14.4093 88.5361 14.5964L85.4164 21.9416Z" fill="white"/>
<path id="Vector_12" d="M81.8321 12.6816L81.1223 14.3323C81.0343 14.5193 80.9188 14.6789 80.7757 14.8109C80.6326 14.943 80.4951 15.009 80.363 15.009H74.7839C74.6299 15.009 74.5418 14.9375 74.5198 14.7944C74.4978 14.6404 74.5198 14.4863 74.5859 14.3323L75.2956 12.6816C75.3617 12.5276 75.4662 12.379 75.6093 12.236C75.7523 12.0819 75.9009 12.0049 76.0549 12.0049H81.634C81.7661 12.0049 81.8486 12.0709 81.8816 12.203C81.9256 12.335 81.9091 12.4946 81.8321 12.6816ZM80.3135 16.2305L77.8871 21.9416C77.8101 22.1287 77.6945 22.2883 77.5405 22.4203C77.3974 22.5524 77.2599 22.6184 77.1278 22.6184H71.5487C71.3947 22.6184 71.3066 22.5469 71.2846 22.4038C71.2626 22.2497 71.2846 22.0957 71.3506 21.9416L73.7771 16.2305C73.8431 16.0764 73.9476 15.9279 74.0907 15.7848C74.2447 15.6307 74.3988 15.5537 74.5529 15.5537H80.132C80.264 15.5537 80.3465 15.6197 80.3795 15.7518C80.4236 15.8838 80.4016 16.0434 80.3135 16.2305Z" fill="white"/>
<path id="Vector 4" d="M8.18618 16.0025L16.9914 0.413407C17.1358 0.157766 17.4045 0 17.6955 0H28.8035C29.4262 0 29.8166 0.680571 29.5076 1.22755L20.7024 16.8166C20.558 17.0723 20.2893 17.23 19.9983 17.23H8.89033C8.26762 17.23 7.87723 16.5495 8.18618 16.0025Z" fill="white"/>
<path id="Vector 7" d="M14.6488 49.3853L23.6742 33.7962C23.8222 33.5406 24.0976 33.3828 24.3959 33.3828H35.7815C36.4198 33.3828 36.82 34.0634 36.5033 34.6104L27.478 50.1994C27.33 50.4551 27.0545 50.6128 26.7562 50.6128H15.3706C14.7323 50.6128 14.3322 49.9323 14.6488 49.3853Z" fill="white"/>
<path id="Vector 5" d="M21.9654 32.1558L12.9401 16.5667C12.7921 16.3111 12.5166 16.1533 12.2183 16.1533H0.83271C0.194435 16.1533 -0.205715 16.8339 0.110958 17.3809L9.13628 32.9699C9.28429 33.2256 9.55973 33.3833 9.85804 33.3833H21.2437C21.8819 33.3833 22.2821 32.7028 21.9654 32.1558Z" fill="white"/>
<path id="Vector 6" d="M45.6578 33.2329L36.6325 17.6439C36.4845 17.3882 36.209 17.2305 35.9107 17.2305H24.5251C23.8868 17.2305 23.4867 17.911 23.8033 18.458L32.8287 34.0471C32.9767 34.3027 33.2521 34.4605 33.5504 34.4605H44.936C45.5743 34.4605 45.9745 33.7799 45.6578 33.2329Z" fill="white"/>
</g>
</svg>
